HIERARCHY
ROOT Hips
{
	OFFSET 0.000000 0.000000 0.000000
	CHANNELS 6 Xposition Yposition Zposition Zrotation Yrotation Xrotation 
	JOINT LHipJoint
	{
		OFFSET 0.000000 0.000000 0.000000
		CHANNELS 3 Zrotation Yrotation Xrotation
		JOINT LeftUpLeg
		{
			OFFSET 1.363060 -1.794630 0.839290
			CHANNELS 3 Zrotation Yrotation Xrotation
			JOINT LeftLeg
			{
				OFFSET 2.448110 -6.726130 0.000000
				CHANNELS 3 Zrotation Yrotation Xrotation
				JOINT LeftFoot
				{
					OFFSET 2.562200 -7.039590 0.000000
					CHANNELS 3 Zrotation Yrotation Xrotation
					JOINT LeftToeBase
					{
						OFFSET 0.157640 -0.433110 2.322550
						CHANNELS 3 Zrotation Yrotation Xrotation
						End Site
						{
							OFFSET 0.000000 0.000000 0.000000
						}
					}
				}
			}
		}
	}
	JOINT RHipJoint
	{
		OFFSET 0.000000 0.000000 0.000000
		CHANNELS 3 Zrotation Yrotation Xrotation
		JOINT RightUpLeg
		{
			OFFSET -1.305520 -1.794630 0.839290
			CHANNELS 3 Zrotation Yrotation Xrotation
			JOINT RightLeg
			{
				OFFSET -2.542530 -6.985550 0.000000
				CHANNELS 3 Zrotation Yrotation Xrotation
				JOINT RightFoot
				{
					OFFSET -2.568260 -7.056230 0.000000
					CHANNELS 3 Zrotation Yrotation Xrotation
					JOINT RightToeBase
					{
						OFFSET -0.164730 -0.452590 2.363150
						CHANNELS 3 Zrotation Yrotation Xrotation
						End Site
						{
							OFFSET 0.000000 0.000000 0.000000
						}
					}
				}
			}
		}
	}
	JOINT LowerBack
	{
		OFFSET 0.000000 0.000000 0.000000
		CHANNELS 3 Zrotation Yrotation Xrotation
		JOINT Spine
		{
			OFFSET 0.028270 2.035590 -0.193380
			CHANNELS 3 Zrotation Yrotation Xrotation
			JOINT Spine1
			{
				OFFSET 0.056720 2.048850 -0.042750
				CHANNELS 3 Zrotation Yrotation Xrotation
				JOINT Neck
				{
					OFFSET 0.000000 0.000000 0.000000
					CHANNELS 3 Zrotation Yrotation Xrotation
					JOINT Neck1
					{
						OFFSET -0.054170 1.746240 0.172020
						CHANNELS 3 Zrotation Yrotation Xrotation
						JOINT Head
						{
							OFFSET 0.104070 1.761360 -0.123970
							CHANNELS 3 Zrotation Yrotation Xrotation
							End Site
							{
								OFFSET 0.000000 0.000000 0.000000
							}
						}
					}
				}
				JOINT LeftShoulder
				{
					OFFSET 0.000000 0.000000 0.000000
					CHANNELS 3 Zrotation Yrotation Xrotation
					JOINT LeftArm
					{
						OFFSET 3.362410 1.200890 -0.311210
						CHANNELS 3 Zrotation Yrotation Xrotation
						JOINT LeftForeArm
						{
							OFFSET 4.983000 -0.000000 -0.000000
							CHANNELS 3 Zrotation Yrotation Xrotation
							JOINT LeftHand
							{
								OFFSET 3.483560 -0.000000 -0.000000
								CHANNELS 3 Zrotation Yrotation Xrotation
								JOINT LeftFingerBase
								{
									OFFSET 0.000000 0.000000 0.000000
									CHANNELS 3 Zrotation Yrotation Xrotation
									JOINT LeftHandIndex1
									{
										OFFSET 0.715260 -0.000000 -0.000000
										CHANNELS 3 Zrotation Yrotation Xrotation
										End Site
										{
											OFFSET 0.000000 0.000000 0.000000
										}
									}
								}
								JOINT LThumb
								{
									OFFSET 0.000000 0.000000 0.000000
									CHANNELS 3 Zrotation Yrotation Xrotation
									End Site
									{
										OFFSET 0.000000 0.000000 0.000000
									}
								}
							}
						}
					}
				}
				JOINT RightShoulder
				{
					OFFSET 0.000000 0.000000 0.000000
					CHANNELS 3 Zrotation Yrotation Xrotation
					JOINT RightArm
					{
						OFFSET -3.136600 1.374050 -0.404650
						CHANNELS 3 Zrotation Yrotation Xrotation
						JOINT RightForeArm
						{
							OFFSET -5.241900 -0.000000 -0.000000
							CHANNELS 3 Zrotation Yrotation Xrotation
							JOINT RightHand
							{
								OFFSET -3.444170 -0.000000 -0.000000
								CHANNELS 3 Zrotation Yrotation Xrotation
								JOINT RightFingerBase
								{
									OFFSET 0.000000 0.000000 0.000000
									CHANNELS 3 Zrotation Yrotation Xrotation
									JOINT RightHandIndex1
									{
										OFFSET -0.622530 -0.000000 -0.000000
										CHANNELS 3 Zrotation Yrotation Xrotation
										End Site
										{
											OFFSET 0.000000 0.000000 0.000000
										}
									}
								}
								JOINT RThumb
								{
									OFFSET 0.000000 0.000000 0.000000
									CHANNELS 3 Zrotation Yrotation Xrotation
									End Site
									{
										OFFSET 0.000000 0.000000 0.000000
									}
								}
							}
						}
					}
				}
			}
		}
	}
}
MOTION
Frames: 10
Frame Time: 0.008333
-0.003112 17.863684 11.599143 174.313687 -0.815491 174.631880 -6.486708 -0.792620 4.134366 -21.493628 1.458135 13.182682 -1.234536 3.406169 7.275793 -4.053768 17.650715 1.918100 0.276100 -3.379800 -9.338000 2.814994 2.707818 -3.971702 0.130632 1.163344 -51.525431 -5.495776 -13.826974 38.521707 1.433109 -21.090210 29.256385 -0.137400 2.389400 -6.583000 -6.612876 -3.869953 10.586183 4.023929 -5.551248 -2.198626 9.262835 -2.580389 -4.304641 12.029225 6.612059 -13.093618 -3.978651 6.041692 5.990451 -6.001900 2.862300 7.058200 3.702978 -2.211128 0.330437 -79.722052 -8.478449 32.041273 26.869461 -37.769737 -8.922959 0.144887 0.296299 -11.845679 15.228646 -2.854889 -0.839100 -7.125000 0.000000 0.000000 -8.814500 26.717700 3.954300 -2.419377 0.940646 0.195139 88.239046 -11.372745 -10.174753 -10.780765 18.405343 -1.936083 0.164363 -0.383543 0.905212 -17.198538 -6.530526 1.911800 7.125000 0.000000 0.000000 7.868800 -36.299200 1.696400 
0.024192 17.852742 11.491332 174.373833 -1.054001 174.949414 -6.503071 -0.802283 4.120997 -21.312058 1.134677 12.915594 -1.205651 3.692082 8.053418 -4.075377 17.596142 1.520354 0.303900 -3.544200 -9.797800 2.833500 2.692260 -3.944403 0.208768 1.064699 -51.150771 -5.633206 -13.937034 38.866034 1.343213 -21.470032 29.962463 -0.129000 2.314800 -6.376300 -6.709838 -4.151447 10.405294 4.272205 -5.908262 -2.232242 9.734297 -2.763866 -4.102594 11.421793 6.871450 -13.301586 -3.912299 6.524240 5.934097 -5.810700 3.059100 7.116500 3.712249 -2.197830 0.324428 -80.439782 -8.149666 31.705763 26.862142 -37.775377 -8.919659 0.145226 0.287552 -11.173389 14.877940 -3.176290 -0.901200 -7.125000 0.000000 0.000000 -9.054900 26.400000 4.132900 -2.393474 0.938780 0.189067 87.584758 -11.089059 -8.948005 -10.871102 18.533879 -1.960259 0.167837 -0.381232 0.378935 -17.221593 -6.421863 1.881000 7.125000 0.000000 0.000000 7.835400 -36.188700 1.710400 
0.051797 17.840997 11.382418 174.395477 -1.288405 175.254934 -6.520170 -0.808927 4.109865 -21.164802 0.837571 12.711987 -1.176841 3.942362 8.733706 -4.090846 17.545377 1.184447 0.332500 -3.705900 -10.250700 2.852404 2.675639 -3.915086 0.261642 0.970611 -50.705318 -5.756721 -14.032945 39.157014 1.224481 -21.811158 30.734322 -0.117300 2.208400 -6.081900 -6.882267 -4.507168 10.252106 4.575709 -6.366060 -2.264885 10.347734 -2.999286 -3.860401 10.606053 7.191302 -13.508457 -3.815901 7.141428 5.851668 -5.553900 3.312800 7.169000 3.721568 -2.181703 0.317212 -81.321324 -7.766757 31.062440 26.860994 -37.790638 -8.921578 0.144926 0.278456 -10.421920 14.503676 -3.485568 -0.954500 -7.125000 0.000000 0.000000 -9.312100 26.096500 4.320300 -2.360942 0.934510 0.181979 86.685107 -10.730392 -7.418624 -10.939160 18.628227 -1.976966 0.172097 -0.377539 -0.157475 -17.242101 -6.337060 1.857700 7.125000 0.000000 0.000000 7.806900 -36.104300 1.720300 
0.079804 17.828650 11.271697 174.398802 -1.506795 175.539398 -6.533901 -0.813000 4.099482 -21.034817 0.581169 12.574656 -1.148518 4.159328 9.323241 -4.101124 17.499238 0.913650 0.364000 -3.875400 -10.726500 2.875117 2.659599 -3.882717 0.310491 0.885489 -50.185083 -5.859197 -14.115095 39.402252 1.065913 -22.026184 31.545592 -0.104900 2.088700 -5.750700 -7.033666 -4.822081 10.098350 4.841545 -6.770548 -2.293497 10.879149 -3.211009 -3.627422 9.832778 7.457925 -13.748967 -3.719197 7.678347 5.798567 -5.312800 3.532200 7.224100 3.729884 -2.165336 0.310085 -82.156946 -7.391363 30.499886 26.868712 -37.812300 -8.926702 0.142574 0.269327 -9.697655 14.025400 -3.743612 -0.983500 -7.125000 0.000000 0.000000 -9.648500 25.847700 4.537500 -2.332225 0.932508 0.175570 85.880581 -10.389261 -5.968240 -11.011984 18.730677 -1.995423 0.176292 -0.374134 -0.691434 -17.245605 -6.276079 1.839700 7.125000 0.000000 0.000000 7.795600 -36.043200 1.729500 
0.108613 17.815701 11.159670 174.394292 -1.708582 175.823321 -6.543399 -0.816567 4.085389 -20.908113 0.355954 12.480014 -1.121624 4.348091 9.836009 -4.106525 17.452384 0.691703 0.397500 -4.047900 -11.211500 2.902907 2.646498 -3.850070 0.351236 0.831228 -49.599553 -5.938270 -14.184711 39.607153 0.878116 -22.101205 32.345609 -0.093200 1.968700 -5.419100 -7.106984 -4.807522 9.929775 5.054074 -7.156340 -2.346580 11.294307 -3.574162 -3.468214 9.146167 7.658119 -14.004684 -3.605065 8.103618 5.764833 -5.093500 3.704400 7.274100 3.736576 -2.150072 0.303845 -82.903355 -7.018071 30.104231 26.873864 -37.828685 -8.928898 0.140101 0.259890 -8.944464 13.539126 -4.014471 -1.010600 -7.125000 0.000000 0.000000 -9.988500 25.587600 4.763600 -2.310668 0.933544 0.170467 85.239572 -10.087649 -4.712244 -11.086165 18.837149 -2.015073 0.180089 -0.371412 -1.184485 -17.240604 -6.240321 1.828500 7.125000 0.000000 0.000000 7.794800 -36.007300 1.736200 
0.138025 17.802049 11.045034 174.370741 -1.878162 176.086598 -6.545772 -0.823722 4.074221 -20.779993 0.307006 12.377671 -1.092300 4.515275 10.304912 -4.069880 17.275516 0.520705 0.435500 -4.234500 -11.737400 2.937990 2.634976 -3.811049 0.375774 0.809074 -48.937756 -5.994571 -14.242554 39.778390 0.671724 -22.031154 33.097382 -0.083100 1.859000 -5.116200 -7.143160 -4.869482 9.726296 5.105888 -7.242964 -2.399042 11.383652 -3.621615 -3.397221 8.881649 7.700080 -14.138547 -3.536090 8.213845 5.750231 -5.005900 3.745700 7.290800 3.740520 -2.145266 0.300607 -83.323620 -6.600508 30.274794 26.871753 -37.830633 -8.923525 0.138217 0.250776 -8.247201 13.091705 -4.298408 -1.039300 -7.125000 0.000000 0.000000 -10.297800 25.314800 4.982300 -2.305545 0.937670 0.167357 85.106829 -10.021767 -4.015500 -11.191093 18.992555 -2.045931 0.182402 -0.371327 -1.614643 -17.234507 -6.197875 1.814100 7.125000 0.000000 0.000000 7.794700 -35.961600 1.744900 
0.168240 17.787996 10.928691 174.331719 -2.049960 176.352571 -6.544681 -0.831820 4.060465 -20.660424 0.275787 12.289602 -1.062891 4.672441 10.747883 -4.024336 17.076488 0.379762 0.475800 -4.423600 -12.271500 2.977296 2.623642 -3.767897 0.381725 0.797653 -48.219525 -6.032622 -14.289764 39.918222 0.465243 -21.869713 33.776967 -0.073900 1.754000 -4.826400 -7.152119 -4.845470 9.500715 5.069680 -7.202094 -2.463619 11.303757 -3.591347 -3.397410 8.867009 7.668106 -14.172401 -3.509267 8.160622 5.705242 -4.999500 3.717700 7.272000 3.742949 -2.149458 0.300360 -83.567391 -6.147637 30.730960 26.872798 -37.831633 -8.917766 0.135746 0.242416 -7.663452 12.635827 -4.547458 -1.055300 -7.125000 0.000000 0.000000 -10.614600 25.078100 5.200100 -2.309384 0.940694 0.165774 85.243045 -10.092774 -3.596661 -11.316804 19.180250 -2.084421 0.184192 -0.372604 -2.040029 -17.222954 -6.159408 1.799900 7.125000 0.000000 0.000000 7.799700 -35.918300 1.754300 
0.199459 17.773340 10.810240 174.294819 -2.197371 176.622878 -6.543833 -0.839974 4.045744 -20.530424 0.261566 12.204285 -1.032595 4.824624 11.177325 -3.977250 16.879372 0.268057 0.519700 -4.620400 -12.829000 3.022162 2.612585 -3.720237 0.395116 0.824972 -47.447362 -6.058761 -14.330537 40.031546 0.283062 -21.704624 34.357355 -0.065900 1.656000 -4.556000 -7.148474 -4.806670 9.251217 5.021370 -7.138236 -2.518962 11.192044 -3.552038 -3.381505 8.838429 7.632320 -14.233180 -3.456138 8.101023 5.657623 -4.981300 3.686700 7.254600 3.745450 -2.152579 0.300187 -83.800554 -5.692077 31.158230 26.864082 -37.823367 -8.906643 0.132851 0.235346 -7.198138 12.207878 -4.741155 -1.058401 -7.125000 0.000000 0.000000 -10.913700 24.896400 5.398800 -2.314768 0.944426 0.163893 85.392983 -10.126290 -3.251970 -11.413159 19.326190 -2.114031 0.185238 -0.373703 -2.383338 -17.188723 -6.106694 1.779000 7.125000 0.000000 0.000000 7.822200 -35.859700 1.770700 
0.232083 17.758985 10.690083 174.264901 -2.344463 176.903346 -6.543506 -0.847903 4.030476 -20.376346 0.254194 12.098982 -0.999912 4.981915 11.622346 -3.921924 16.656331 0.174815 0.565400 -4.816000 -13.384500 3.072187 2.600300 -3.668490 0.420406 0.870478 -46.631931 -6.081875 -14.367264 40.120352 0.143348 -21.627082 34.835586 -0.058200 1.556700 -4.282000 -7.137706 -4.765554 8.990764 4.968645 -7.070229 -2.582740 11.069310 -3.510532 -3.373402 8.798654 7.577720 -14.332397 -3.382228 8.022938 5.670866 -4.955700 3.650100 7.263600 3.747617 -2.151507 0.298373 -84.033633 -5.203528 31.556532 26.842562 -37.803513 -8.888756 0.130181 0.230345 -6.854457 11.869940 -4.862602 -1.052500 -7.125000 0.000000 0.000000 -11.151500 24.784400 5.550300 -2.320882 0.952418 0.161479 85.538403 -10.157546 -2.935365 -11.481992 19.433233 -2.135035 0.185589 -0.374641 -2.628843 -17.139848 -6.041324 1.752800 7.125000 0.000000 0.000000 7.855200 -35.787800 1.792200 
0.266414 17.744229 10.568219 174.252483 -2.495738 177.187668 -6.543468 -0.855489 4.013926 -20.190442 0.238211 11.980264 -0.963896 5.149566 12.096501 -3.864152 16.425169 0.091132 0.613800 -5.014300 -13.949500 3.128290 2.585797 -3.612938 0.476376 0.926617 -45.774257 -6.104644 -14.401496 40.184070 0.038191 -21.664889 35.258422 -0.052700 1.480900 -4.073000 -7.109570 -4.718705 8.714479 4.911485 -6.992663 -2.642917 10.924467 -3.464165 -3.360538 8.802208 7.551912 -14.390295 -3.327687 7.968660 5.617771 -4.941600 3.622700 7.246000 3.750695 -2.154898 0.298876 -84.253597 -4.716282 31.936378 26.794808 -37.759259 -8.856061 0.126802 0.227641 -6.631265 11.577049 -4.863212 -1.025500 -7.125000 0.000000 0.000000 -11.364800 24.790700 5.658900 -2.327647 0.956375 0.159551 85.688928 -10.152780 -2.682526 -11.512151 19.485356 -2.144332 0.185372 -0.375528 -2.753940 -17.098343 -5.991540 1.732500 7.125000 0.000000 0.000000 7.884000 -35.732900 1.809500 
